PathFileType	4	(X/Y/Z)	Kaydara	
DataRate	CameraRate	NumFrames	NumMarkers	Units	OrigDataRate	OrigDataStartFrame	OrigNumFrames	
120.00	120.00	4	72	mm	120.00	164	261	
Frame#	Time	Hips			RightUpLeg			RightLeg			RightFoot			RightFoot_End			LeftUpLeg			LeftLeg			LeftFoot			LeftFoot_End			Spine			Spine1			Spine2			Spine3			Neck			Head			Head_End			RightShoulder			RightArm			RightForeArm			RightHand			RightHandThumb1			RightHandThumb2			RightHandThumb3			RightHandThumb3_End			RightInHandIndex			RightHandIndex1			RightHandIndex2			RightHandIndex3			RightHandIndex3_End			RightInHandMiddle			RightHandMiddle1			RightHandMiddle2			RightHandMiddle3			RightHandMiddle3_End			RightInHandRing			RightHandRing1			RightHandRing2			RightHandRing3			RightHandRing3_End			RightInHandPinky			RightHandPinky1			RightHandPinky2			RightHandPinky3			RightHandPinky3_End			LeftShoulder			LeftArm			LeftForeArm			LeftHand			LeftHandThumb1			LeftHandThumb2			LeftHandThumb3			LeftHandThumb3_End			LeftInHandIndex			LeftHandIndex1			LeftHandIndex2			LeftHandIndex3			LeftHandIndex3_End			LeftInHandMiddle			LeftHandMiddle1			LeftHandMiddle2			LeftHandMiddle3			LeftHandMiddle3_End			LeftInHandRing			LeftHandRing1			LeftHandRing2			LeftHandRing3			LeftHandRing3_End			LeftInHandPinky			LeftHandPinky1			LeftHandPinky2			LeftHandPinky3			LeftHandPinky3_End			
		X1	Y1	Z1	X2	Y2	Z2	X3	Y3	Z3	X4	Y4	Z4	X5	Y5	Z5	X6	Y6	Z6	X7	Y7	Z7	X8	Y8	Z8	X9	Y9	Z9	X10	Y10	Z10	X11	Y11	Z11	X12	Y12	Z12	X13	Y13	Z13	X14	Y14	Z14	X15	Y15	Z15	X16	Y16	Z16	X17	Y17	Z17	X18	Y18	Z18	X19	Y19	Z19	X20	Y20	Z20	X21	Y21	Z21	X22	Y22	Z22	X23	Y23	Z23	X24	Y24	Z24	X25	Y25	Z25	X26	Y26	Z26	X27	Y27	Z27	X28	Y28	Z28	X29	Y29	Z29	X30	Y30	Z30	X31	Y31	Z31	X32	Y32	Z32	X33	Y33	Z33	X34	Y34	Z34	X35	Y35	Z35	X36	Y36	Z36	X37	Y37	Z37	X38	Y38	Z38	X39	Y39	Z39	X40	Y40	Z40	X41	Y41	Z41	X42	Y42	Z42	X43	Y43	Z43	X44	Y44	Z44	X45	Y45	Z45	X46	Y46	Z46	X47	Y47	Z47	X48	Y48	Z48	X49	Y49	Z49	X50	Y50	Z50	X51	Y51	Z51	X52	Y52	Z52	X53	Y53	Z53	X54	Y54	Z54	X55	Y55	Z55	X56	Y56	Z56	X57	Y57	Z57	X58	Y58	Z58	X59	Y59	Z59	X60	Y60	Z60	X61	Y61	Z61	X62	Y62	Z62	X63	Y63	Z63	X64	Y64	Z64	X65	Y65	Z65	X66	Y66	Z66	X67	Y67	Z67	X68	Y68	Z68	X69	Y69	Z69	X70	Y70	Z70	X71	Y71	Z71	X72	Y72	Z72	

164	1.358	6081.203	893.81699	129.612	6165.560283862676	891.4893529803489	86.13079573333883	6039.876784570899	494.42637736187464	35.59959363207933	6068.476827415623	108.30494064140284	12.781389223501808	5954.874716805363	37.2873125850587	152.2843858552595	6008.344276904685	870.1703162645335	187.82000409793525	5911.729239907513	483.12133072499444	315.5002572556721	5807.645462519679	79.79379044114069	463.6007958050817	5664.211458820982	31.55106833089116	347.39225458979485	6027.691345749683	1014.4799626130989	74.17097220098017	5973.991464039747	1076.9666427604536	22.71026527483058	5914.325666921812	1136.2006104971692	-33.695544278810495	5852.589436980103	1183.40742560054	-92.37814777473118	5785.075972477798	1235.2276257774622	-152.20638051270126	5714.189716180402	1276.2604180161395	-198.7029451274565	5576.3018503949515	1354.9462278814092	-215.72978150263327	5831.565542472988	1228.930179416243	-150.23091266609347	5922.0950903443545	1265.56422471906	-229.46348832890476	6006.779664341188	1037.6512764963318	-318.6361421550397	6168.579449068119	931.2456810573818	-456.4034721401542	6180.198866521068	946.5401367354234	-482.20313659461556	6176.1009934140575	948.4642160852529	-515.5756693424971	6174.236425032697	946.3210516723155	-538.1768616441154	6173.528239633086	941.5546950904194	-556.4714724007613	6186.98975344467	935.8564231398301	-481.74338450160195	6209.357943732484	928.2556926263469	-520.4142575407873	6213.285608477254	920.8350972200443	-550.1810178255868	6206.797623933776	918.4789530861649	-567.7746267130548	6195.404083161048	918.0513535157556	-581.7214235596217	6188.348458090162	926.5462236408274	-478.79396710352097	6210.903962274509	914.0974179197702	-514.9162180470737	6215.282014474294	904.7936021504834	-546.8866361568544	6207.498710224221	901.3720599711722	-567.8674433313552	6195.053600084355	900.6227422693651	-583.0085468848272	6188.866673941622	920.159885524019	-475.6979041996823	6209.908455929222	903.4517379884875	-505.3084932513085	6213.781631344235	894.1290116312259	-532.5950509088404	6206.304400221571	890.1842379193585	-552.5252296620733	6194.617247591985	889.1743140746739	-566.6159769898111	6187.798971288889	913.0402874626931	-471.20991655884336	6206.88052488748	893.3151539418991	-495.52873168199505	6209.978619467088	884.0295699399045	-516.3465848286963	6204.523048278421	880.2716978728702	-530.3844248211506	6194.169186576388	878.8703116892374	-542.579172525793	5783.140308602647	1205.4865782709676	-114.89401874199677	5709.1923916833375	1118.0774091944827	-54.32177734088409	5896.499736019472	1011.8114830663152	-194.28978739568748	6101.132469637346	942.2995967469675	-330.7699039522204	6120.156822014597	960.0045781296167	-348.0577175120505	6155.214626714139	965.2377582596109	-345.1461932893992	6181.111233617201	965.354019728923	-342.5043591351737	6203.968223063267	962.4327196057806	-339.7765061116482	6126.45250945239	949.3163452975648	-349.6078758925672	6173.954784040346	945.5039661454955	-366.7382470269472	6211.090466437286	941.0628739907484	-367.0898263880667	6231.523042655187	940.4901844078577	-360.129001346477	6246.644423548639	941.492268551901	-349.52479857489027	6129.024776111795	939.768115939058	-346.7910756508319	6176.747242529544	930.8855057529572	-361.97921381280224	6217.460077433855	924.7896546204764	-361.9211729814243	6242.202592428214	923.4990199053876	-353.3112195254392	6258.7925391453255	924.3039454755042	-341.6052460997961	6129.607627767517	933.1139109313972	-344.4807341545531	6172.817273279635	919.3604089568781	-356.4287281329511	6208.4223960587715	912.7839456363372	-355.9014593761738	6232.352059499528	910.868151508651	-347.3433171954535	6247.980896079748	911.3070709202731	-336.21677834612836	6129.078662504532	925.5996633515075	-340.4010031569	6168.324791359978	908.3322817739428	-349.24217548364993	6196.834476292243	901.1552320911079	-348.0233208106883	6214.288105512267	898.8334944586087	-341.39561462313134	6228.132273651682	898.6903330871229	-331.31753027800846
165	1.367	6081.203	893.81699	129.612	6164.434570610248	890.685480270517	85.30681882022934	6038.783187973741	493.6101068439175	35.16806978680039	6069.7641516180975	108.25191553114904	10.58102743151435	5956.632884716892	36.8468011934352	150.09022195548582	6009.48625616845	870.9772856946506	188.63506059733496	5913.079738225794	483.8107321324905	316.06362314054655	5809.605662778558	79.55100658162624	461.6953010751081	5665.972476575522	30.887440465930148	345.98147019547366	6027.803539416564	1014.502179101345	74.15133575387668	5974.1116639523925	1077.0217656192126	22.725610498829937	5914.438780174688	1136.2962339374185	-33.62653685318956	5852.657657098754	1183.5392760910274	-92.22661705037955	5785.125933884116	1235.3986735742776	-151.99536399646937	5714.418114240392	1276.5954383695653	-198.5871032780362	5576.514505696215	1355.2540212304457	-215.54075271058525	5831.32997383546	1228.533948694751	-150.25441438597517	5920.553398747273	1262.8981654571026	-229.9739437174567	6002.056076100547	1034.4788476762694	-315.65746520939234	6159.238838770857	924.8243308906021	-451.4955056255236	6170.565034489125	939.5088898256352	-477.3138711659681	6166.143477166613	941.0539711907634	-510.2289354522134	6164.025288041514	938.6639632526704	-532.4627711061964	6163.081539797016	933.7064446689348	-550.4094063837065	6177.215538127433	928.801810101793	-476.71262340371266	6198.869989608427	920.4208550208858	-514.8778904035544	6202.36701817359	912.6104686327549	-544.1238152751781	6195.725926227096	910.142686725947	-561.3798309724841	6184.282972335022	909.7108425725346	-575.0379002267566	6178.525506464327	919.572531378041	-473.64011044595793	6200.358470945635	906.4064445641695	-509.20267423278597	6204.262580480236	896.6906886554273	-540.5899441219482	6196.292622752626	893.1408900201661	-561.1563490597273	6183.792505208529	892.3900541891783	-575.9780766706278	6179.02650649791	913.2616751328575	-470.4712792161191	6199.402886654279	895.9715465372892	-499.5209015662864	6202.859999479158	886.3046153184446	-526.2849120860487	6195.201147966893	882.2440112414555	-545.8077873052023	6183.4615267839135	881.2363957462759	-559.5946487989023	6177.967494606645	906.2642727775659	-465.9038575318283	6196.440526978044	886.0750660617417	-489.66337329071393	6199.203725894098	876.5395631471973	-510.04295948913966	6193.614844048715	872.7096395607921	-523.7741177461095	6183.2140226374595	871.3174550828104	-535.6941513609604	5783.471774893971	1206.2087706645998	-114.45932321033561	5710.5024330583765	1120.7662748601795	-52.4770999324699	5894.213903231835	1011.2034977551563	-191.04775155851877	6095.122719168966	937.4838877184219	-326.75109321404574	6113.869581770113	954.5323732874242	-344.3756407747308	6148.685414553574	959.261486294402	-341.9506069963364	6174.385894417171	959.0380416351999	-339.5979121410279	6197.055754963452	955.8432326213667	-337.0686254912155	6120.02217624934	943.8009572469405	-345.7516682958337	6166.859934295667	939.0632821939324	-363.0634741100777	6203.632698356156	934.104082892185	-363.6857192086058	6223.968336311836	933.3409157160812	-356.99879908305456	6239.096285269751	934.2741297944727	-346.69255935422814	6122.547186317978	934.3217191342909	-342.80036953288777	6169.595913822653	924.5738847281306	-358.0926821958641	6209.908776890494	917.9249373939197	-358.3118365809234	6234.5324415695495	916.4103829170401	-350.0236275381256	6251.128652545198	917.1428128840801	-338.63944468557276	6123.112285303709	927.7384810186786	-340.3886201454986	6165.698843947178	913.2671102942438	-352.3368119387552	6200.952383222442	906.2224778306704	-352.03244662772244	6224.765830942003	904.0980835942903	-343.77472145798873	6240.399811195416	904.4723401067056	-332.94604075481277	6122.592535257957	920.343763973328	-336.2005781007926	6161.268198837497	902.4866927995755	-344.9693289651633	6189.494447419265	894.9595952879267	-343.89980366091595	6206.862388762194	892.4977219309037	-337.47711550973116	6220.710584012227	892.3041964494917	-327.6547661820174
166	1.375	6081.203	893.81699	129.612	6163.255766236628	889.8609462783508	84.48173826383754	6037.679823286678	492.76227730599203	34.75679324967463	6071.067449819678	108.2092256036778	8.31594438368046	5958.444320499211	36.39515600617999	147.83319834633448	6010.680195939004	871.8041660532018	189.45065778080286	5914.465045754551	484.5163525651587	316.5976336908818	5811.58201561129	79.32537032671478	459.7212848968385	5667.750417135031	30.22477212583163	344.51119037789977	6027.9257390720495	1014.5264980693169	74.12952467139088	5974.244405452545	1077.0829567335188	22.741471512661946	5914.566312420316	1136.4028361172634	-33.553067570456165	5852.740569476484	1183.6880722776134	-92.06463674161608	5785.191024642369	1235.5922853708482	-151.76823841459804	5714.665261541787	1276.9604461849328	-198.45219173662267	5576.7440849821205	1355.5892317555454	-215.32337431690667	5831.090967984246	1228.1449459964276	-150.25567179561472	5918.9351007539	1260.1900480641214	-230.40656216890403	5997.264597960022	1031.3782834913807	-312.45771899733404	6149.708098645507	918.5253870756349	-446.20900617647516	6160.729011832636	932.6035745773908	-472.0196053079285	6155.990611407028	933.7743005671475	-504.44638921367005	6153.623937483988	931.1407763428546	-526.2916113193724	6152.449226066318	925.9949500510468	-543.8727216989486	6167.237333873034	921.8737732547615	-471.2751861236385	6188.167013557606	912.719386171896	-508.8924330794509	6191.236542143427	904.5240229211399	-537.5878260732337	6184.450781694942	901.9470402743216	-554.4908150577928	6172.969776683044	901.5125936880769	-567.8494253931561	6168.500475132994	912.7254390278985	-468.08159066612774	6189.601168285099	898.8487091876715	-503.04418687017187	6193.035058580442	888.7262475095048	-533.816306758313	6184.88877316389	885.0511235877617	-553.9498828634	6172.346150581135	884.3005620532728	-568.4405865291875	6168.98578019457	906.4899091575492	-464.8424903798787	6188.689036664075	888.6236167191923	-493.2972007746215	6191.733656671701	878.6170132536706	-519.5112467011409	6183.903317110791	874.443390389652	-538.6092969548185	6172.123064403945	873.4397611088775	-552.0814402044795	6167.938394711911	899.6143179830227	-460.19978569598544	6185.797262011375	878.9661423556354	-483.3713953410846	6188.228964420223	869.1842783883529	-503.29164947947925	6182.514424006773	865.2843193870777	-516.7037762112766	6172.077279072262	863.9028029709615	-528.3397476911911	5783.836818264832	1206.9660579199997	-114.01762268135695	5711.910537172516	1123.5667706591648	-50.6543136245095	5891.933718155253	1010.7074185756987	-187.66988426988345	6088.982608368271	932.7807817545688	-322.45185078981007	6107.42874602622	949.1732775590626	-340.3959280974145	6141.9710356601145	953.3947907131351	-338.45458151013975	6167.453826772124	952.8294104865893	-336.3889462788038	6189.918946496959	949.3594314026277	-334.05638319846685	6113.438219950536	938.4000580877495	-341.59395284034605	6159.574960411147	932.7386327871751	-359.06246391545454	6195.9562935738995	927.2596982847135	-359.9479749061615	6216.178045706038	926.3032493928042	-353.5377663780095	6231.299060496619	927.1640637040782	-343.53680914535954	6115.9182505445	928.9902565286749	-338.50913577894556	6162.25886969403	918.3789471211281	-353.8820300182988	6202.141063023289	911.1751774207548	-354.37052671703503	6226.6256299188535	909.4333442816611	-346.4075547090736	6243.213428069299	910.0894282549432	-335.3532229958057	6116.46816419368	922.4782897411246	-335.99719672737655	6158.403142028965	907.2909678215682	-347.92519161578747	6193.27881939984	899.7767100866146	-347.8371501902366	6216.956774957871	897.4405015075226	-339.8833517137392	6232.582219025189	897.7464869647331	-329.36017484227625	6115.961432310459	915.2031787583101	-331.70379411777515	6154.042919804625	896.7583220374005	-340.38287505560305	6181.965559070696	888.8800776078062	-339.4579136808943	6199.234172977911	886.2757564290068	-333.243046974764	6213.074519357694	886.028689228155	-323.68334559508736
167	1.383	6081.203	893.81699	129.612	6162.024425494771	889.016319350013	83.6565620802715	6036.5680968270935	491.883331140213	34.36609295708769	6072.385550836702	108.17699182229538	5.987059188717673	5960.307949953075	35.93259333401339	145.5142846345757	6011.925486594938	872.6503735349793	190.26580486200024	5915.884253270335	485.2377813767931	317.1016209196687	5813.572955481708	79.11742387831039	457.680409755732	5669.544258453394	29.563754073306022	342.9823162608697	6028.058040052056	1014.5529396529507	74.10545457018179	5974.389823308286	1077.1502423045345	22.757738751644666	5914.708432890345	1136.5204451672585	-33.47526296518852	5852.838376254372	1183.8538502939532	-91.8923285340839	5785.271451212349	1235.8084983952933	-151.52509912355245	5714.931144188583	1277.3553557269615	-198.29808539236316	5576.990617716882	1355.9518607241694	-215.07744917156077	5830.848786372233	1227.7636075066575	-150.2344501466052	5917.240749649861	1257.4419197589943	-230.75981244176342	5992.409466141207	1028.3537194196624	-309.03683660813033	6139.99470612774	912.3575880888742	-440.5430821060711	6150.698236059764	925.8335027821782	-466.3189433760302	6145.650140609053	926.6350083793686	-498.2264891047953	6143.040389210815	923.7616510807587	-519.6617894384261	6141.639589807182	918.4306793267915	-536.859825716701	6157.062765429347	915.0817473657912	-465.4297831089384	6177.257146697331	905.1617318517335	-502.4562950738914	6179.902747210621	896.5867840384772	-530.5713991188546	6172.9809875583	893.9032392100502	-547.1059542823159	6161.4734568198255	893.4678926156241	-560.1544394681877	6158.2811318588765	906.0143757954548	-462.11727247513465	6178.640393286172	891.4346241266658	-496.43941053914506	6181.60828054273	880.9113177897083	-526.5643340290295	6173.296279508579	877.1140408825735	-546.2466968989681	6160.723837078287	876.3656110482102	-560.394804863538	6158.752350543814	899.8539886340983	-458.8105178263592	6177.775348501661	881.4182107630756	-486.63627925406877	6180.41149178797	871.0770081065009	-512.2729265808983	6172.420081593596	866.7934075284817	-530.9286829989501	6160.611210526984	865.7955019553699	-544.0753529071542	6157.719616487708	893.0997500711617	-454.0968327254158	6174.959267314666	871.9984596093279	-476.65193450465915	6177.063253453833	861.9742123536316	-496.09181347569904	6171.230925951122	858.0063952153939	-509.172614286592	6160.768256299011	856.6370624581737	-520.5152538882598	5784.235608175091	1207.7580790330778	-113.56937867984824	5713.416781204284	1126.4775820501413	-48.85564027623067	5889.661924609781	1010.325128304031	-184.15764480170517	6082.717338850711	928.1970329728616	-317.87240058559064	6100.839378097933	943.9346658552756	-336.118178128173	6135.076380578557	947.6455487662182	-334.6572237133752	6160.319859731865	946.7363643171299	-332.876277425743	6182.56262576879	942.989864124313	-330.73839653511703	6106.705924179389	933.1211463757618	-337.13444865393274	6152.105393646197	926.5385760710444	-354.73438368395864	6188.066837443825	920.5388692167683	-355.8754120497969	6208.157657789518	919.3865303106711	-349.74452536078985	6223.258065674547	920.1714615278304	-340.0560211978094	6109.143398162777	923.7812126300088	-333.91725437156674	6154.741859920582	912.3092033752043	-349.3466859647538	6194.162762916663	904.5495244630939	-350.0963146629972	6218.48787461448	902.5772873887399	-342.46184637959635	6235.052400555241	903.1532244425416	-331.7452688494812	6109.680792094904	917.3407864122842	-331.3064714770055	6150.936072430881	901.4403249217067	-343.19358066067014	6185.407695039603	893.4555357889202	-343.31499632011383	6208.930785588384	890.9045201449118	-335.6684291846876	6224.533846771797	891.1386710802169	-325.4582598303708	6109.190974550368	910.1852718181982	-326.9108228785425	6146.65498420026	891.1553073880553	-335.4828162365947	6174.253936361183	882.9252421793988	-334.697462505625	6191.409525858201	880.1763153038645	-328.69309004554975	6205.230007021628	879.872564131848	-319.40283465867554
